<!DOCTYPE svg PUBLIC "-//W3C//DTD SVG 1.1//EN" "http://www.w3.org/Graphics/SVG/1.1/DTD/svg11.dtd">
<!-- Uploaded to: SVG Repo, www.svgrepo.com, Transformed by: SVG Repo Mixer Tools -->
<svg height="85px" width="85px" version="1.1" id="_x32_" xmlns="http://www.w3.org/2000/svg" xmlns:xlink="http://www.w3.org/1999/xlink" viewBox="0 0 512 512" xml:space="preserve" fill="#000000">
<g id="SVGRepo_bgCarrier" stroke-width="0"/>
<g id="SVGRepo_tracerCarrier" stroke-linecap="round" stroke-linejoin="round"/>
<g id="SVGRepo_iconCarrier"> <style type="text/css"> .st0{fill:#000000;} </style> <g> <path class="st0" d="M511.06,286.261c-0.387-10.849-7.42-20.615-18.226-25.356l-193.947-74.094 C298.658,78.15,285.367,3.228,256.001,3.228c-29.366,0-42.657,74.922-42.885,183.583L19.167,260.904 C8.345,265.646,1.33,275.412,0.941,286.261L0.008,311.97c-0.142,3.886,1.657,7.623,4.917,10.188 c3.261,2.564,7.597,3.684,11.845,3.049c0,0,151.678-22.359,198.037-29.559c1.85,82.016,4.019,127.626,4.019,127.626l-51.312,24.166 c-6.046,2.38-10.012,8.206-10.012,14.701v9.465c0,4.346,1.781,8.505,4.954,11.493c3.155,2.987,7.403,4.539,11.74,4.292l64.83-3.667 c2.08,14.436,8.884,25.048,16.975,25.048c8.091,0,14.877-10.612,16.975-25.048l64.832,3.667c4.336,0.246,8.584-1.305,11.738-4.292 c3.174-2.988,4.954-7.148,4.954-11.493v-9.465c0-6.495-3.966-12.321-10.012-14.701l-51.329-24.166c0,0,2.186-45.61,4.037-127.626 c46.358,7.2,198.036,29.559,198.036,29.559c4.248,0.635,8.602-0.485,11.845-3.049c3.261-2.565,5.041-6.302,4.918-10.188 L511.06,286.261z"/> </g> </g>
</svg>