<!DOCTYPE svg PUBLIC "-//W3C//DTD SVG 1.1//EN" "http://www.w3.org/Graphics/SVG/1.1/DTD/svg11.dtd">
<!-- Uploaded to: SVG Repo, www.svgrepo.com, Transformed by: SVG Repo Mixer Tools -->
<svg fill="#6c5eb0" height="153px" width="153px" version="1.1" id="Layer_1" xmlns="http://www.w3.org/2000/svg" xmlns:xlink="http://www.w3.org/1999/xlink" viewBox="0 0 512.00 512.00" enable-background="new 0 0 512 512" xml:space="preserve" stroke="#6c5eb0" stroke-width="0.00512" transform="matrix(1, 0, 0, 1, 0, 0)rotate(0)">
<g id="SVGRepo_bgCarrier" stroke-width="0"/>
<g id="SVGRepo_tracerCarrier" stroke-linecap="round" stroke-linejoin="round"/>
<g id="SVGRepo_iconCarrier"> <path d="M490.7,0c-21.3,0-42.7,0-53.3,10.7l-85.3,96H21.3L0,138.7l234.7,74.7l-64,85.3h-96l-32,32l64,21.3v32 c0.7,11.5,10.7,21.3,21.3,21.3h32l21.3,64l32-32v-96l85.3-64L373.3,512l32-21.3V160l96-85.3C512,64,512,42.7,512,21.3 C512,10.7,501.3,0,490.7,0z"/> </g>
</svg>