<!DOCTYPE svg PUBLIC "-//W3C//DTD SVG 1.1//EN" "http://www.w3.org/Graphics/SVG/1.1/DTD/svg11.dtd">
<!-- Uploaded to: SVG Repo, www.svgrepo.com, Transformed by: SVG Repo Mixer Tools -->
<svg fill="#000000" width="64px" height="64px" viewBox="0 0 24 24" xmlns="http://www.w3.org/2000/svg">
<g id="SVGRepo_bgCarrier" stroke-width="0"/>
<g id="SVGRepo_tracerCarrier" stroke-linecap="round" stroke-linejoin="round"/>
<g id="SVGRepo_iconCarrier">
<path d="M22,1H10A1,1,0,0,0,9,2V5H2A1,1,0,0,0,1,6V22a1,1,0,0,0,1,1H22a1,1,0,0,0,1-1V2A1,1,0,0,0,22,1ZM13,21H3V7H13Zm8,0H15V6a1,1,0,0,0-1-1H11V3H21ZM5,10A1,1,0,0,1,6,9h4a1,1,0,0,1,0,2H6A1,1,0,0,1,5,10Zm0,4a1,1,0,0,1,1-1h4a1,1,0,0,1,0,2H6A1,1,0,0,1,5,14Zm0,4a1,1,0,0,1,1-1h4a1,1,0,0,1,0,2H6A1,1,0,0,1,5,18Z"/>
</g>
</svg>