<!DOCTYPE svg PUBLIC "-//W3C//DTD SVG 1.1//EN" "http://www.w3.org/Graphics/SVG/1.1/DTD/svg11.dtd">
<!-- Uploaded to: SVG Repo, www.svgrepo.com, Transformed by: SVG Repo Mixer Tools -->
<svg width="64px" height="64px" viewBox="0 -3 20 20" xmlns="http://www.w3.org/2000/svg" fill="#000000">
<g id="SVGRepo_bgCarrier" stroke-width="0"/>
<g id="SVGRepo_tracerCarrier" stroke-linecap="round" stroke-linejoin="round"/>
<g id="SVGRepo_iconCarrier"> <g id="train-left" transform="translate(-2 -5)"> <path id="secondary" fill="#2ca9bc" d="M11,14a1,1,0,0,0,1-1V10h8a1,1,0,0,1,1,1v6a1,1,0,0,1-1,1H4a1,1,0,0,1-1-1,7,7,0,0,1,.68-3Z"/> <path id="primary" d="M16,14h1M8,6h6m-2,4V6m-2,4H20a1,1,0,0,1,1,1v6a1,1,0,0,1-1,1H4a1,1,0,0,1-1-1,7,7,0,0,1,7-7Zm0,0h2v3a1,1,0,0,1-1,1H3.68A7,7,0,0,1,10,10Z" fill="none" stroke="#000000" stroke-linecap="round" stroke-linejoin="round" stroke-width="2"/> </g> </g>
</svg>